<svg xmlns="http://www.w3.org/2000/svg" width="1200" height="800" viewBox="0 0 1200 800">
  <defs>
    <linearGradient id="g" x1="0" x2="1">
      <stop offset="0" stop-color="#ffd54a"/>
      <stop offset="1" stop-color="#3f51b5"/>
    </linearGradient>
  </defs>
  <rect width="100%" height="100%" fill="#f6efe8"/>
  <!-- abstract plastic sculpture shape inspired by attachment -->
  <g transform="translate(600,400)">
    <path d="M-220 -60 C -180 -160, -60 -200, 0 -180 C 60 -160, 140 -120, 160 -40 C 180 40, 120 120, 40 140 C -40 160, -120 140, -160 100 C -200 60, -240 20, -220 -60 Z"
          fill="url(#g)" opacity="0.95"/>
    <path d="M80 -10 C 140 -40, 200 20, 160 80 C 120 140, 40 160, -10 120 C -60 80, 10 40, 80 -10 Z"
          fill="#ffeb3b" opacity="0.9"/>
    <circle cx="-60" cy="-30" r="18" fill="#ffffff" opacity="0.25"/>
    <circle cx="40" cy="20" r="10" fill="#ffffff" opacity="0.2"/>
  </g>
  <text x="24" y="780" font-family="Inter, Arial, sans-serif" font-size="22" fill="#666">Escultura de plástico — placeholder</text>
</svg>